<?xml version="1.0" standalone="no"?>
<!DOCTYPE svg PUBLIC "-//W3C//DTD SVG 20010904//EN"
 "http://www.w3.org/TR/2001/REC-SVG-20010904/DTD/svg10.dtd">
<svg version="1.0" xmlns="http://www.w3.org/2000/svg"
 width="1024.000000pt" height="1024.000000pt" viewBox="0 0 1024.000000 1024.000000"
 preserveAspectRatio="xMidYMid meet">

<g transform="translate(0.000000,1024.000000) scale(0.100000,-0.100000)"
fill="#000000" stroke="none">
<path d="M4835 7835 c-649 -75 -1196 -337 -1650 -790 -142 -141 -226 -244
-340 -415 -232 -349 -362 -692 -436 -1155 -20 -124 -17 -561 5 -705 52 -342
122 -571 261 -855 127 -259 281 -480 475 -679 242 -248 528 -457 809 -588 392
-183 736 -258 1187 -258 218 0 341 12 529 51 523 108 1005 375 1390 770 215
221 367 433 495 693 201 408 284 768 283 1231 0 255 -14 378 -74 660 -23 113
-88 301 -155 448 -207 463 -570 883 -1009 1170 -299 195 -649 332 -1013 397
-223 39 -540 50 -757 25z m-1124 -1589 c219 -39 349 -199 349 -431 0 -89 -20
-169 -67 -265 -88 -181 -270 -288 -562 -330 l-80 -12 50 -81 c115 -185 266
-336 456 -455 87 -55 156 -76 268 -79 114 -2 131 -12 101 -58 -38 -58 -143
-76 -259 -46 -102 27 -189 73 -320 172 -159 119 -259 244 -373 464 -27 52 -52
95 -55 95 -3 0 -23 -55 -44 -122 -67 -215 -146 -451 -167 -501 -15 -34 -28
-49 -46 -54 -33 -8 -76 18 -80 49 -2 13 22 91 51 173 30 83 65 184 77 225 95
329 328 963 360 980 28 15 100 -16 100 -42 0 -11 -24 -82 -54 -157 -81 -204
-169 -451 -163 -457 2 -3 45 0 93 6 311 39 468 123 551 296 81 169 52 371 -66
461 -104 81 -283 85 -441 10 -87 -41 -215 -169 -303 -305 -65 -99 -69 -103
-100 -100 -44 4 -46 38 -8 121 74 165 215 315 366 390 62 30 185 60 270 65 11
1 54 -5 96 -12z m1170 4 c10 -6 19 -20 19 -31 0 -11 -25 -82 -55 -159 -122
-307 -262 -713 -305 -878 -45 -178 -46 -280 -4 -296 60 -23 192 164 268 381
72 205 71 203 111 203 21 0 44 -9 62 -24 l27 -24 -61 -153 c-73 -183 -93 -248
-93 -305 0 -85 48 -77 128 22 30 36 49 72 59 111 45 179 187 352 308 377 76
16 125 -34 125 -124 0 -76 -8 -90 -46 -90 l-34 0 0 54 c0 30 -4 58 -10 61 -5
3 -23 -1 -39 -9 -87 -46 -191 -257 -191 -390 0 -36 6 -52 25 -71 46 -47 126
-22 213 67 67 69 84 94 132 195 94 201 212 305 347 307 50 1 67 -3 94 -23 23
-17 34 -21 37 -12 2 7 15 16 29 22 30 11 79 -11 88 -40 4 -12 -15 -73 -49
-160 -96 -242 -113 -361 -50 -349 40 7 186 262 233 407 l21 65 -22 44 c-20 42
-20 50 -9 105 7 32 24 83 39 113 30 62 52 73 113 55 47 -14 49 -27 13 -106
-14 -31 -27 -70 -28 -87 -1 -31 -1 -31 83 -49 46 -10 89 -24 97 -30 8 -6 18
-28 24 -49 13 -48 2 -99 -50 -240 -67 -179 -73 -250 -19 -250 49 0 174 166
203 272 24 86 106 291 120 300 32 21 116 -10 116 -43 0 -9 -15 -50 -33 -90
-62 -136 -100 -259 -105 -341 -4 -75 -4 -78 18 -78 51 0 142 103 165 188 19
72 43 124 72 155 28 28 61 35 80 16 7 -7 12 3 16 36 9 66 32 102 84 135 118
75 250 32 284 -92 33 -125 -56 -353 -187 -480 -57 -55 -114 -78 -193 -78 -72
0 -119 25 -147 78 l-21 40 -39 -40 c-46 -48 -89 -68 -143 -68 -48 0 -95 35
-111 85 l-11 33 -42 -45 c-73 -79 -149 -102 -223 -67 -45 22 -66 64 -65 131 0
62 11 106 53 223 61 173 67 217 24 206 -11 -3 -32 -6 -46 -6 -22 0 -28 -7 -38
-46 -7 -25 -34 -95 -61 -154 -115 -259 -231 -382 -336 -356 -36 9 -74 55 -87
103 l-10 43 -28 -38 c-60 -83 -128 -122 -211 -122 -46 0 -55 4 -90 39 -25 25
-39 48 -39 65 0 26 -1 25 -59 -22 -79 -64 -142 -85 -231 -80 -60 3 -73 7 -101
33 -17 17 -37 42 -44 56 l-14 26 -50 -47 c-65 -61 -123 -79 -174 -55 -40 19
-65 51 -74 95 -3 17 -7 30 -9 30 -1 0 -27 -25 -56 -56 -64 -68 -93 -84 -154
-84 -39 0 -51 5 -80 34 -19 19 -37 48 -40 65 -4 17 -10 31 -14 31 -5 0 -28
-16 -52 -37 -70 -59 -140 -85 -238 -90 -74 -4 -91 -1 -130 19 -65 34 -90 82
-90 180 0 165 118 380 247 450 131 71 243 29 243 -92 0 -117 -124 -235 -288
-272 -64 -14 -76 -32 -69 -101 9 -98 82 -123 194 -67 66 33 134 99 176 171 15
25 45 108 67 185 23 76 52 173 66 214 86 253 271 749 286 767 13 16 62 17 89
3z m1164 -467 c12 -11 15 -25 11 -46 -9 -46 -54 -115 -84 -131 -40 -20 -92
-30 -92 -17 0 6 23 56 50 111 43 85 54 100 74 100 14 0 32 -7 41 -17z m-1007
-161 c31 -40 3 -92 -49 -92 -45 0 -69 17 -69 48 0 35 10 49 40 61 30 11 60 5
78 -17z m1946 7 c14 -11 26 -30 26 -41 0 -53 -74 -77 -121 -39 -20 16 -22 23
-14 47 10 27 45 54 71 54 6 0 23 -9 38 -21z m-2267 -1357 c8 -5 2 -17 -18 -40
-30 -33 -44 -38 -69 -22 -12 8 -10 14 15 40 29 30 49 36 72 22z m-824 -295
c36 -100 67 -189 69 -197 2 -11 -6 -15 -31 -15 -32 0 -35 4 -49 43 l-14 43
-80 -3 -80 -3 -17 -40 c-14 -34 -20 -40 -45 -40 -16 1 -31 5 -33 10 -1 6 28
93 65 195 65 177 69 185 97 191 17 3 35 4 42 1 6 -2 41 -85 76 -185z m402 182
c37 -10 105 -66 105 -86 0 -6 -12 -15 -26 -21 -23 -11 -29 -9 -54 17 -54 53
-145 49 -193 -9 -70 -82 -25 -216 78 -236 46 -8 77 0 114 31 26 23 33 24 50
13 29 -18 26 -31 -14 -66 -88 -78 -252 -45 -304 60 -25 52 -28 141 -7 191 15
38 88 104 120 110 42 8 92 7 131 -4z m839 -3 c18 -7 43 -26 55 -42 l22 -29
-30 -14 c-28 -13 -31 -13 -50 10 -34 43 -131 26 -131 -23 0 -20 52 -54 109
-72 73 -23 103 -52 103 -98 0 -83 -50 -128 -140 -128 -60 0 -101 17 -131 56
-28 36 -26 50 8 62 25 9 31 7 49 -18 26 -35 71 -46 109 -28 30 14 42 50 23 73
-6 8 -41 24 -76 35 -90 30 -117 55 -117 108 0 23 8 53 17 67 33 50 114 68 180
41z m964 8 c36 -7 112 -69 112 -90 0 -8 -12 -19 -26 -24 -22 -9 -29 -7 -46 15
-10 13 -37 29 -59 35 -53 14 -99 0 -137 -44 -40 -46 -48 -95 -23 -150 25 -58
61 -81 127 -81 44 0 57 5 83 29 29 28 31 28 56 12 24 -16 25 -19 13 -39 -46
-71 -196 -89 -276 -33 -132 91 -105 308 45 361 42 16 84 18 131 9z m466 -5
c22 -6 56 -29 81 -54 130 -129 36 -345 -150 -345 -119 0 -205 86 -205 205 0
144 128 235 274 194z m-1984 -144 c0 -142 1 -147 25 -170 31 -32 96 -34 125
-5 18 18 20 33 20 170 l0 150 36 0 35 0 -3 -165 -3 -165 -32 -32 c-28 -28 -40
-33 -96 -36 -86 -6 -132 16 -158 72 -15 34 -19 66 -19 184 l0 142 35 0 35 0 0
-145z m990 115 c0 -30 -1 -30 -55 -30 l-55 0 0 -170 0 -170 -35 0 -35 0 0 170
0 170 -55 0 c-55 0 -55 0 -53 30 l2 30 143 0 143 0 0 -30z m168 -167 l-3 -198
-32 -3 -33 -3 0 200 0 201 35 0 35 0 -2 -197z"/>
<path d="M5825 5372 c-47 -29 -127 -122 -163 -190 -43 -81 -62 -145 -62 -214
0 -71 19 -87 74 -64 85 35 266 321 266 420 0 60 -56 83 -115 48z"/>
<path d="M7333 5380 c-33 -13 -53 -62 -53 -126 0 -51 3 -59 34 -90 34 -34 39
-64 10 -64 -30 0 -88 32 -120 65 l-32 35 -20 -33 c-28 -45 -42 -102 -42 -174
0 -75 6 -92 37 -104 93 -35 245 194 260 392 5 58 3 69 -16 88 -23 23 -26 24
-58 11z"/>
<path d="M4174 5360 c-33 -22 -80 -82 -113 -147 -27 -55 -27 -56 12 -48 45 10
98 39 123 67 80 88 64 184 -22 128z"/>
<path d="M3757 3998 c-15 -44 -27 -82 -25 -83 7 -7 100 -15 108 -10 8 5 -35
151 -49 167 -3 4 -19 -29 -34 -74z"/>
<path d="M6435 4090 c-44 -21 -68 -55 -80 -108 -8 -40 22 -108 61 -136 58 -42
152 -25 196 34 50 68 22 172 -56 209 -53 26 -71 26 -121 1z"/>
</g>
</svg>
